<?xml version="1.0" encoding="UTF-8"?>
<svg width="81px" height="68px" viewBox="0 0 81 68" version="1.1" xmlns="http://www.w3.org/2000/svg" xmlns:xlink="http://www.w3.org/1999/xlink">
    <!-- Generator: Sketch 59.1 (86144) - https://sketch.com -->
    <title>Group 17</title>
    <desc>Created with Sketch.</desc>
    <g id="9.Auto-ML" stroke="none" stroke-width="1" fill="none" fill-rule="evenodd">
        <g id="Artboard" transform="translate(-272.000000, -583.000000)">
            <g id="Group-7" transform="translate(185.000000, 418.000000)">
                <g id="Group-16">
                    <g id="Group-17" transform="translate(87.000000, 165.000000)">
                        <path d="M40,50 C44.9705627,50 49,54.0294373 49,59 C49,63.9705627 44.9705627,68 40,68 C35.0294373,68 31,63.9705627 31,59 C31,54.0294373 35.0294373,50 40,50 Z M40,53.375 C36.8933983,53.375 34.375,55.8933983 34.375,59 C34.375,62.1066017 36.8933983,64.625 40,64.625 C43.1066017,64.625 45.625,62.1066017 45.625,59 C45.625,55.8933983 43.1066017,53.375 40,53.375 Z" id="Combined-Shape-Copy-3" fill="#A9EEF6"></path>
                        <path d="M71,30 C72.1045695,30 73,30.8954305 73,32 L73,45 C73,46.1045695 72.1045695,47 71,47 C69.8954305,47 69,46.1045695 69,45 L69,34 L42,34 L42,45 C42,46.1045695 41.1045695,47 40,47 C38.8954305,47 38,46.1045695 38,45 L38,33.999 L10.999,33.999 L11,45 C11,46.1045695 10.1045695,47 9,47 C7.8954305,47 7,46.1045695 7,45 L7,32 C7,30.8954305 7.8954305,30 9,30 L71,30 L71,30 Z" id="Combined-Shape" fill="#A9EEF6"></path>
                        <g id="Group-2" transform="translate(28.000000, 0.000000)" fill="#FFFFFF">
                            <path d="M12,0 C18.627417,0 24,5.372583 24,12 C24,18.627417 18.627417,24 12,24 C5.372583,24 0,18.627417 0,12 C0,5.372583 5.372583,0 12,0 Z M12,4.5 C7.85786438,4.5 4.5,7.85786438 4.5,12 C4.5,16.1421356 7.85786438,19.5 12,19.5 C16.1421356,19.5 19.5,16.1421356 19.5,12 C19.5,7.85786438 16.1421356,4.5 12,4.5 Z" id="Combined-Shape-Copy-3"></path>
                            <circle id="Oval" cx="12" cy="12" r="4"></circle>
                        </g>
                        <path d="M13.374141,50 C15.58328,50 17.374141,51.790861 17.374141,54 L17.374141,63.374141 C17.374141,65.58328 15.58328,67.374141 13.374141,67.374141 L4,67.374141 C1.790861,67.374141 2.705415e-16,65.58328 0,63.374141 L0,54 C-2.705415e-16,51.790861 1.790861,50 4,50 L13.374141,50 Z M11.9924299,53.3817107 L5.38171073,53.3817107 C4.27714123,53.3817107 3.38171073,54.2771412 3.38171073,55.3817107 L3.38171073,55.3817107 L3.38171073,61.9924299 C3.38171073,63.0969994 4.27714123,63.9924299 5.38171073,63.9924299 L5.38171073,63.9924299 L11.9924299,63.9924299 C13.0969994,63.9924299 13.9924299,63.0969994 13.9924299,61.9924299 L13.9924299,61.9924299 L13.9924299,55.3817107 C13.9924299,54.2771412 13.0969994,53.3817107 11.9924299,53.3817107 L11.9924299,53.3817107 Z" id="Combined-Shape" fill="#A9EEF6"></path>
                        <polygon id="Triangle" stroke="#A9EEF6" stroke-width="3" stroke-linejoin="round" points="71 52 79 65 63 65"></polygon>
                    </g>
                </g>
            </g>
        </g>
    </g>
</svg>
