<?xml version="1.0" encoding="UTF-8"?>
<svg width="97px" height="50px" viewBox="0 0 97 50" version="1.1" xmlns="http://www.w3.org/2000/svg" xmlns:xlink="http://www.w3.org/1999/xlink">
    <!-- Generator: Sketch 59.1 (86144) - https://sketch.com -->
    <title>Group 15</title>
    <desc>Created with Sketch.</desc>
    <g id="9.Auto-ML" stroke="none" stroke-width="1" fill="none" fill-rule="evenodd">
        <g id="Artboard" transform="translate(-538.000000, -601.000000)">
            <g id="Group-7" transform="translate(185.000000, 418.000000)">
                <g id="Group-16-Copy" transform="translate(274.000000, 0.000000)">
                    <g id="Group-18" transform="translate(79.000000, 182.000000)">
                        <g id="Group-15" transform="translate(0.619048, 0.904762)">
                            <path d="M34.5714286,1.04761905 C39.2001008,1.04761905 42.952381,4.79989924 42.952381,9.42857143 C42.952381,14.0572436 39.2001008,17.8095238 34.5714286,17.8095238 C29.9427564,17.8095238 26.1904762,14.0572436 26.1904762,9.42857143 C26.1904762,4.79989924 29.9427564,1.04761905 34.5714286,1.04761905 Z M34.5714286,4.19047619 C31.6785085,4.19047619 29.3333333,6.53565131 29.3333333,9.42857143 C29.3333333,12.3214915 31.6785085,14.6666667 34.5714286,14.6666667 C37.4643487,14.6666667 39.8095238,12.3214915 39.8095238,9.42857143 C39.8095238,6.53565131 37.4643487,4.19047619 34.5714286,4.19047619 Z" id="Combined-Shape-Copy" fill="#A9EEF6"></path>
                            <path d="M8.38095238,31.4285714 C13.0096246,31.4285714 16.7619048,35.1808516 16.7619048,39.8095238 C16.7619048,44.438196 13.0096246,48.1904762 8.38095238,48.1904762 C3.75228019,48.1904762 0,44.438196 0,39.8095238 C0,35.1808516 3.75228019,31.4285714 8.38095238,31.4285714 Z M8.38095238,34.5714286 C5.48803226,34.5714286 3.14285714,36.9166037 3.14285714,39.8095238 C3.14285714,42.7024439 5.48803226,45.047619 8.38095238,45.047619 C11.2738725,45.047619 13.6190476,42.7024439 13.6190476,39.8095238 C13.6190476,36.9166037 11.2738725,34.5714286 8.38095238,34.5714286 Z" id="Combined-Shape-Copy-3" fill="#A9EEF6"></path>
                            <path d="M60.7619048,32.4761905 C65.390577,32.4761905 69.1428571,36.2284707 69.1428571,40.8571429 C69.1428571,45.485815 65.390577,49.2380952 60.7619048,49.2380952 C56.1332326,49.2380952 52.3809524,45.485815 52.3809524,40.8571429 C52.3809524,36.2284707 56.1332326,32.4761905 60.7619048,32.4761905 Z M60.7619048,35.6190476 C57.8689846,35.6190476 55.5238095,37.9642227 55.5238095,40.8571429 C55.5238095,43.750063 57.8689846,46.0952381 60.7619048,46.0952381 C63.6548249,46.0952381 66,43.750063 66,40.8571429 C66,37.9642227 63.6548249,35.6190476 60.7619048,35.6190476 Z" id="Combined-Shape-Copy-4" fill="#FFFFFF"></path>
                            <circle id="Oval" fill="#FFFFFF" cx="60.7619048" cy="40.8571429" r="3.14285714"></circle>
                            <path d="M13.5238095,23.047619 L29.4285714,23.047619 C30.5331409,23.047619 31.4285714,23.9430495 31.4285714,25.047619 L31.4285714,25.2380952 C31.4285714,26.3426647 30.5331409,27.2380952 29.4285714,27.2380952 L13.5238095,27.2380952 C12.41924,27.2380952 11.5238095,26.3426647 11.5238095,25.2380952 L11.5238095,25.047619 C11.5238095,23.9430495 12.41924,23.047619 13.5238095,23.047619 Z" id="Rectangle" fill="#A9EEF6" transform="translate(21.476190, 25.142857) rotate(-50.000000) translate(-21.476190, -25.142857) "></path>
                            <path d="M62.7238706,16.2261757 L96.4381563,16.2261757 C97.5427258,16.2261757 98.4381563,17.1216062 98.4381563,18.2261757 L98.4381563,18.4166519 C98.4381563,19.5212214 97.5427258,20.4166519 96.4381563,20.4166519 L62.7238706,20.4166519 C61.6193011,20.4166519 60.7238706,19.5212214 60.7238706,18.4166519 L60.7238706,18.2261757 C60.7238706,17.1216062 61.6193011,16.2261757 62.7238706,16.2261757 Z" id="Rectangle-Copy" fill="#FFFFFF" transform="translate(79.581013, 18.321414) rotate(-50.000000) translate(-79.581013, -18.321414) "></path>
                            <path d="M39.7142857,23.047619 L55.6190476,23.047619 C56.7236171,23.047619 57.6190476,23.9430495 57.6190476,25.047619 L57.6190476,25.2380952 C57.6190476,26.3426647 56.7236171,27.2380952 55.6190476,27.2380952 L39.7142857,27.2380952 C38.6097162,27.2380952 37.7142857,26.3426647 37.7142857,25.2380952 L37.7142857,25.047619 C37.7142857,23.9430495 38.6097162,23.047619 39.7142857,23.047619 Z" id="Rectangle" fill="#A9EEF6" transform="translate(47.666667, 25.142857) scale(-1, 1) rotate(-50.000000) translate(-47.666667, -25.142857) "></path>
                            <path d="M93.2380952,1.04761905 C94.3952633,1.04761905 95.3333333,1.9856891 95.3333333,3.14285714 L95.3333333,15.7142857 C95.3333333,16.8714538 94.3952633,17.8095238 93.2380952,17.8095238 C92.0809272,17.8095238 91.1428571,16.8714538 91.1428571,15.7142857 L91.1424286,5.23761905 L80.6666667,5.23809524 C79.5094986,5.23809524 78.5714286,4.30002519 78.5714286,3.14285714 C78.5714286,1.9856891 79.5094986,1.04761905 80.6666667,1.04761905 L93.2380952,1.04761905 L93.2380952,1.04761905 Z" id="Combined-Shape" fill="#FFFFFF" transform="translate(86.952381, 9.428571) rotate(-7.000000) translate(-86.952381, -9.428571) "></path>
                        </g>
                    </g>
                </g>
            </g>
        </g>
    </g>
</svg>
